<?xml version="1.0" encoding="utf-8"?>
<svg xmlns="http://www.w3.org/2000/svg" viewBox="0 0 512 512" xmlns:bx="https://boxy-svg.com" width="512px" height="512px"><defs><bx:export><bx:file format="svg" path="favicon-original.svg"/><bx:file format="png" path="favicon-original.png"/></bx:export><radialGradient gradientUnits="userSpaceOnUse" cx="19.149" cy="19.929" r="18.563" id="gradient-0" spreadMethod="pad" gradientTransform="matrix(13.450675, -0.35129, 0.697548, 26.708765, -15.461797, -269.552332)"><stop offset="0" style="stop-color: rgb(57.647% 33.725% 96.078%)"/><stop offset="1" style="stop-color: rgb(78, 29, 167);"/></radialGradient></defs><ellipse style="stroke: rgb(0, 0, 0); fill: rgb(255, 255, 255);" cx="250.357" cy="262.778" rx="170.053" ry="170.053"/><path fill-rule="evenodd" clip-rule="evenodd" d="M 255.987 505.77 C 393.943 505.77 505.77 393.957 505.77 256.014 C 505.77 118.057 393.943 6.23 255.987 6.23 C 118.057 6.23 6.23 118.057 6.23 256.014 C 6.23 393.957 118.057 505.77 255.987 505.77 Z M 294.549 199.219 C 315.836 177.919 315.836 143.406 294.549 122.12 C 273.263 100.807 238.737 100.807 217.451 122.12 C 196.164 143.406 196.164 177.919 217.451 199.219 L 255.987 237.755 L 294.549 199.219 Z M 312.795 294.549 C 334.081 315.849 368.607 315.849 389.893 294.549 C 411.193 273.263 411.193 238.737 389.893 217.451 C 368.607 196.164 334.081 196.164 312.795 217.451 L 274.245 256.014 L 312.795 294.549 Z M 294.549 389.893 C 315.836 368.594 315.836 334.094 294.549 312.781 L 255.987 274.259 L 217.451 312.781 C 196.164 334.094 196.164 368.594 217.451 389.893 C 238.737 411.193 273.263 411.193 294.549 389.893 Z M 122.107 294.549 C 100.807 273.263 100.807 238.737 122.107 217.451 C 143.406 196.164 177.906 196.164 199.219 217.451 L 237.755 256.014 L 199.219 294.549 C 177.906 315.849 143.406 315.849 122.107 294.549 Z" class="ccustom" style="fill: url(&quot;#gradient-0&quot;); stroke-width: 9px; stroke: rgb(94, 53, 136);"/></svg>