<?xml version="1.0" encoding="UTF-8"?>
<svg viewBox="0 0 184.35 39.676" xmlns="http://www.w3.org/2000/svg" xmlns:bx="https://boxy-svg.com">
<path d="m66.182 16.65h-1.485c-0.667-2.712-1.662-4.756-2.985-6.132-1.323-1.377-2.942-2.066-4.856-2.066-2.388 0-4.185 0.979-5.39 2.938-1.204 1.957-1.806 4.84-1.806 8.648 0 1.807 0.134 3.334 0.403 4.582s0.715 2.345 1.339 3.292c0.581 0.838 1.377 1.516 2.388 2.032 1.011 0.517 2.065 0.775 3.163 0.775 1.097 0 2.129-0.258 3.098-0.775 0.967-0.516 1.667-1.194 2.097-2.032 0.193-0.41 0.349-0.937 0.467-1.582 0.119-0.645 0.178-1.333 0.178-2.065 0-0.452-0.027-0.812-0.081-1.081s-0.183-0.474-0.387-0.614c-0.204-0.139-0.51-0.23-0.919-0.274-0.41-0.043-0.969-0.064-1.679-0.064h-0.645v-1.582h10.746v1.582h-0.517c-0.903 0-1.559 0.037-1.968 0.113-0.408 0.075-0.688 0.199-0.839 0.37-0.043 0.065-0.08 0.129-0.112 0.194-0.033 0.065-0.054 0.162-0.065 0.291-0.011 0.13-0.017 0.318-0.017 0.565v1.049 7.453h-1.451l-1.26-3.064c-1.075 1.096-2.161 1.887-3.258 2.371s-2.356 0.727-3.776 0.727c-1.613 0-3.156-0.334-4.63-1.001s-2.738-1.593-3.792-2.776c-1.979-2.215-2.969-5.044-2.969-8.486 0-2.281 0.393-4.292 1.178-6.034 0.785-1.743 2.017-3.292 3.695-4.648 1.075-0.882 2.162-1.511 3.259-1.887 1.097-0.377 2.313-0.565 3.647-0.565 0.602 0 1.161 0.038 1.677 0.113 0.517 0.075 1.017 0.204 1.501 0.387s0.963 0.419 1.436 0.71 0.979 0.662 1.517 1.114l1.323-2.034h1.323l0.452 9.456zm12.338-1.098c0.99 0 1.92 0.221 2.791 0.662 0.872 0.441 1.636 1.037 2.292 1.79s1.172 1.635 1.548 2.646c0.377 1.012 0.565 2.098 0.565 3.26s-0.188 2.254-0.565 3.276c-0.376 1.021-0.892 1.908-1.548 2.661s-1.431 1.35-2.324 1.791c-0.893 0.442-1.845 0.663-2.856 0.663s-1.957-0.221-2.839-0.663c-0.882-0.441-1.657-1.038-2.324-1.791s-1.189-1.635-1.565-2.646c-0.377-1.011-0.565-2.097-0.565-3.259 0-1.183 0.193-2.285 0.581-3.307 0.387-1.022 0.909-1.91 1.566-2.663 0.656-0.752 1.435-1.344 2.339-1.774 0.903-0.431 1.871-0.646 2.904-0.646zm0 1.42c-1.291 0-2.254 0.586-2.888 1.758-0.635 1.173-0.952 2.91-0.952 5.212 0 2.237 0.317 3.942 0.952 5.114 0.634 1.173 1.565 1.76 2.791 1.76s2.162-0.587 2.808-1.76c0.645-1.172 0.967-2.887 0.967-5.146 0-2.238-0.317-3.953-0.952-5.147-0.634-1.194-1.543-1.791-2.726-1.791zm9.252-0.549 5.841-0.354v2.71c0.753-1.118 1.559-1.936 2.42-2.453 0.861-0.516 1.829-0.774 2.904-0.774 1.011 0 1.92 0.231 2.727 0.694s1.426 1.103 1.856 1.92c0.15 0.279 0.274 0.537 0.37 0.774 0.097 0.237 0.167 0.506 0.211 0.807 0.042 0.302 0.074 0.657 0.096 1.065 0.022 0.409 0.032 0.914 0.032 1.516v6.648c0 0.345 0.032 0.619 0.097 0.823 0.064 0.204 0.183 0.366 0.355 0.485 0.172 0.118 0.425 0.193 0.758 0.225s0.769 0.048 1.307 0.048h0.162v1.227h-8.551v-1.227h0.128c0.56 0 1.006-0.016 1.34-0.048 0.333-0.032 0.592-0.107 0.774-0.225 0.183-0.119 0.306-0.281 0.371-0.485 0.064-0.204 0.096-0.478 0.096-0.823v-6.808c0-0.818-0.064-1.495-0.193-2.034-0.129-0.538-0.323-0.99-0.581-1.355-0.258-0.344-0.608-0.629-1.049-0.855s-0.876-0.339-1.306-0.339c-0.753 0-1.468 0.237-2.146 0.71s-1.2 1.097-1.565 1.871c-0.172 0.409-0.318 0.963-0.436 1.662s-0.177 1.469-0.177 2.308v4.84c0 0.345 0.032 0.619 0.096 0.823 0.065 0.204 0.188 0.366 0.371 0.485 0.183 0.118 0.442 0.193 0.775 0.225 0.334 0.032 0.78 0.048 1.34 0.048h0.128v1.227h-8.551v-1.227h0.129c0.538 0 0.979-0.016 1.323-0.048s0.603-0.107 0.775-0.225c0.172-0.119 0.29-0.281 0.354-0.485 0.065-0.204 0.097-0.478 0.097-0.823v-9.422c0-0.366-0.016-0.662-0.048-0.888-0.033-0.225-0.102-0.398-0.209-0.516-0.108-0.119-0.254-0.199-0.437-0.242s-0.435-0.064-0.758-0.064h-1.226v-1.421zm29.744 12.876c1.184 0 2.092 0.038 2.726 0.113 0.635 0.075 1.168 0.199 1.598 0.371 0.624 0.258 1.119 0.699 1.485 1.323s0.549 1.355 0.549 2.194c0 3.593-2.818 5.39-8.455 5.39-2.281 0-4.045-0.307-5.293-0.921-1.248-0.613-1.871-1.478-1.871-2.597 0-1.398 1.032-2.474 3.097-3.227-0.795-0.28-1.37-0.64-1.726-1.081-0.355-0.441-0.532-1.038-0.532-1.791 0-0.947 0.253-1.689 0.758-2.227 0.506-0.537 1.329-0.935 2.469-1.193-0.904-0.409-1.603-1.012-2.098-1.808s-0.742-1.699-0.742-2.71c0-0.839 0.156-1.603 0.468-2.292 0.312-0.688 0.758-1.274 1.34-1.758 0.58-0.484 1.279-0.86 2.097-1.129 0.817-0.269 1.731-0.404 2.742-0.404 0.861 0 1.598 0.092 2.211 0.275 0.614 0.183 1.265 0.521 1.953 1.016 0.387-0.366 0.726-0.667 1.016-0.904s0.559-0.42 0.806-0.549c0.248-0.129 0.485-0.22 0.711-0.273 0.225-0.054 0.467-0.081 0.725-0.081 0.668 0 1.211 0.188 1.63 0.564 0.419 0.377 0.629 0.845 0.629 1.405 0 0.473-0.145 0.86-0.435 1.161-0.291 0.301-0.651 0.452-1.081 0.452-0.431 0-0.78-0.102-1.05-0.307-0.268-0.204-0.434-0.511-0.499-0.919-0.022-0.194-0.059-0.318-0.113-0.372-0.053-0.053-0.124-0.08-0.21-0.08-0.129 0-0.28 0.054-0.452 0.162-0.172 0.107-0.408 0.321-0.709 0.644 0.495 0.559 0.828 1.081 0.999 1.566 0.173 0.484 0.259 1.059 0.259 1.726 0 1.118-0.269 2.103-0.806 2.953-0.538 0.85-1.324 1.501-2.356 1.952-0.237 0.108-0.452 0.189-0.645 0.242-0.194 0.054-0.409 0.102-0.646 0.145s-0.516 0.081-0.839 0.113c-0.323 0.033-0.721 0.059-1.194 0.081l-1.517 0.065c-1.14 0.042-1.952 0.182-2.436 0.419-0.484 0.236-0.727 0.602-0.727 1.097 0 0.172 0.038 0.35 0.114 0.532 0.075 0.183 0.167 0.306 0.274 0.371 0.107 0.064 0.204 0.113 0.291 0.146 0.086 0.033 0.204 0.059 0.354 0.081 0.151 0.021 0.361 0.037 0.629 0.048 0.269 0.011 0.63 0.016 1.082 0.016h3.42zm-1.419-12.327c-1.162 0-2.044 0.366-2.646 1.097-0.603 0.732-0.904 1.765-0.904 3.098 0 1.291 0.306 2.302 0.919 3.033 0.614 0.732 1.447 1.098 2.501 1.098 1.097 0 1.947-0.371 2.55-1.113 0.602-0.743 0.903-1.781 0.903-3.115 0-1.291-0.285-2.297-0.855-3.017-0.57-0.721-1.393-1.081-2.468-1.081zm-2.808 15.231c-0.817 0.43-1.393 0.844-1.726 1.242-0.334 0.398-0.501 0.866-0.501 1.405 0 0.795 0.388 1.397 1.163 1.806 0.774 0.409 1.871 0.613 3.291 0.613 1.893 0 3.367-0.269 4.421-0.806 1.054-0.538 1.581-1.291 1.581-2.259 0-0.538-0.199-0.979-0.597-1.323s-0.941-0.549-1.63-0.614c-0.172-0.021-0.349-0.037-0.532-0.048s-0.426-0.016-0.727-0.016h-4.743zm31.126-16.199h-1.42c-0.236-0.882-0.505-1.689-0.807-2.42-0.3-0.732-0.698-1.442-1.193-2.131-1.377-1.978-3.27-2.968-5.68-2.968-1.42 0-2.571 0.371-3.453 1.113-0.882 0.743-1.323 1.706-1.323 2.888 0 1.033 0.355 1.888 1.066 2.566 0.709 0.678 1.828 1.21 3.355 1.598l3.615 0.935c1.333 0.344 2.371 0.672 3.114 0.985 0.742 0.311 1.349 0.693 1.822 1.144 1.356 1.313 2.034 3.023 2.034 5.132 0 1.14-0.194 2.167-0.581 3.081-0.387 0.915-0.936 1.695-1.646 2.34s-1.565 1.145-2.565 1.5c-1.001 0.356-2.114 0.534-3.341 0.534-0.753 0-1.436-0.044-2.049-0.13-0.612-0.086-1.204-0.231-1.774-0.436-0.57-0.204-1.118-0.468-1.646-0.79-0.527-0.323-1.081-0.721-1.662-1.195l-1.517 2.292h-1.386v-9.617h1.386c0.258 1.312 0.586 2.404 0.984 3.276 0.399 0.871 0.953 1.705 1.663 2.501 0.818 0.882 1.683 1.527 2.598 1.935 0.914 0.409 2.006 0.614 3.275 0.614 0.946 0 1.726-0.102 2.34-0.307 0.613-0.204 1.199-0.554 1.758-1.048 1.011-0.925 1.517-2.055 1.517-3.389 0-1.355-0.527-2.43-1.582-3.227-0.172-0.129-0.328-0.242-0.467-0.338-0.14-0.097-0.323-0.183-0.549-0.259-0.226-0.075-0.527-0.16-0.904-0.257-0.376-0.098-0.876-0.232-1.5-0.404l-3.194-0.807c-1.248-0.322-2.302-0.683-3.163-1.081s-1.56-0.861-2.097-1.388c-0.538-0.527-0.931-1.14-1.178-1.838-0.248-0.7-0.372-1.512-0.372-2.437 0-1.055 0.178-2.017 0.532-2.888 0.355-0.871 0.856-1.613 1.502-2.227 0.645-0.613 1.424-1.086 2.339-1.42 0.914-0.333 1.92-0.5 3.017-0.5 1.205 0 2.334 0.194 3.388 0.582 1.055 0.387 1.979 0.967 2.775 1.742l1.356-2.066h1.226l0.387 8.81zm3.005-8.745 6.227-0.355v11.908c0.774-1.14 1.587-1.969 2.437-2.486 0.85-0.516 1.813-0.774 2.888-0.774 1.032 0 1.947 0.231 2.743 0.694s1.409 1.103 1.84 1.92c0.15 0.279 0.273 0.537 0.37 0.774s0.167 0.506 0.21 0.807c0.043 0.302 0.075 0.657 0.097 1.065 0.021 0.409 0.032 0.914 0.032 1.516v6.648c0 0.345 0.032 0.619 0.097 0.823 0.064 0.204 0.183 0.366 0.355 0.485 0.172 0.118 0.425 0.193 0.759 0.225 0.332 0.032 0.768 0.048 1.306 0.048h0.162v1.227h-8.552v-1.227h0.129c0.559 0 1.006-0.016 1.34-0.048 0.333-0.032 0.591-0.107 0.774-0.225 0.182-0.119 0.306-0.281 0.37-0.485 0.065-0.204 0.097-0.478 0.097-0.823v-6.776c0-0.818-0.064-1.501-0.193-2.049-0.13-0.549-0.323-1.007-0.581-1.372-0.258-0.344-0.607-0.629-1.048-0.855s-0.877-0.339-1.308-0.339c-0.753 0-1.468 0.237-2.145 0.71-0.678 0.473-1.2 1.097-1.565 1.871-0.172 0.409-0.318 0.963-0.437 1.662-0.118 0.699-0.177 1.469-0.177 2.308v4.84c0 0.345 0.033 0.619 0.097 0.823 0.065 0.204 0.189 0.366 0.372 0.485 0.182 0.118 0.44 0.193 0.774 0.225s0.78 0.048 1.339 0.048h0.129v1.227h-8.551v-1.227h0.128c0.539 0 0.98-0.016 1.323-0.048 0.345-0.032 0.603-0.107 0.776-0.225 0.171-0.119 0.289-0.281 0.354-0.485 0.064-0.204 0.097-0.478 0.097-0.823v-18.555c0-0.731-0.086-1.199-0.258-1.403-0.172-0.205-0.57-0.307-1.194-0.307h-1.613v-1.452zm28.614 8.293c0.99 0 1.921 0.221 2.792 0.662 0.87 0.441 1.634 1.037 2.29 1.79s1.173 1.635 1.55 2.646c0.376 1.012 0.564 2.098 0.564 3.26s-0.188 2.254-0.564 3.276c-0.377 1.021-0.894 1.908-1.55 2.661s-1.43 1.35-2.322 1.791c-0.893 0.442-1.845 0.663-2.856 0.663s-1.958-0.221-2.84-0.663c-0.882-0.441-1.657-1.038-2.323-1.791-0.668-0.753-1.189-1.635-1.565-2.646-0.377-1.011-0.566-2.097-0.566-3.259 0-1.183 0.194-2.285 0.581-3.307s0.909-1.91 1.565-2.663c0.656-0.752 1.436-1.344 2.34-1.774 0.903-0.431 1.871-0.646 2.904-0.646zm0 1.42c-1.291 0-2.253 0.586-2.887 1.758-0.635 1.173-0.953 2.91-0.953 5.212 0 2.237 0.318 3.942 0.953 5.114 0.634 1.173 1.564 1.76 2.791 1.76 1.225 0 2.161-0.587 2.807-1.76 0.645-1.172 0.968-2.887 0.968-5.146 0-2.238-0.317-3.953-0.952-5.147s-1.543-1.791-2.727-1.791z" style=""/>
<path d="m64.304 17.15-0.093-0.381c-0.649-2.662-1.581-4.592-2.86-5.905-1.24-1.32-2.679-1.912-4.495-1.912-2.268 0-3.852 0.83-4.964 2.7-1.172 1.877-1.732 4.629-1.732 8.386 0 1.785 0.129 3.259 0.392 4.477 0.26 1.205 0.665 2.216 1.265 3.119 0.538 0.79 1.238 1.381 2.201 1.865 0.956 0.497 1.896 0.72 2.935 0.72 1.036 0 1.951-0.221 2.863-0.716 0.91-0.475 1.5-1.041 1.881-1.808 0.18-0.374 0.314-0.837 0.426-1.456 0.116-0.621 0.17-1.263 0.17-1.974 0-0.433-0.023-0.744-0.071-0.983-0.037-0.181-0.046-0.233-0.179-0.299-0.135-0.106-0.325-0.155-0.689-0.19-0.393-0.042-0.926-0.061-1.627-0.061h-1.145v-2.582h11.746v2.582h-1.017c-0.889 0-1.5 0.033-1.878 0.105-0.352 0.057-0.441 0.087-0.518 0.163-0.032 0.047-0.053 0.085-0.077 0.135-0.012 5e-3 -7e-3 0.01-0.013 0.107-0.01 0.117-0.015 0.284-0.015 0.523v1.049 7.953h-2.286l-1.107-2.693c-0.942 0.866-1.729 1.452-2.874 1.957-1.148 0.507-2.511 0.77-3.978 0.77-1.666 0-3.314-0.357-4.836-1.045-1.521-0.689-2.866-1.681-3.959-2.899-2.028-2.299-3.096-5.294-3.096-8.819 0-2.329 0.42-4.443 1.222-6.239 0.817-1.796 2.119-3.436 3.835-4.83 1.108-0.906 2.272-1.577 3.413-1.973 1.14-0.387 2.437-0.592 3.809-0.592 0.619 0 1.214 0.041 1.749 0.118 0.543 0.081 1.096 0.222 1.606 0.414 0.506 0.192 1.028 0.449 1.521 0.752 0.49 0.302 0.743 0.491 1.139 0.802l1.168-1.796h2.071l0.499 10.456h-2.402zm0.949-9.456h-0.575l-1.483 2.281-0.433-0.364c-0.525-0.442-1.001-0.791-1.457-1.071-0.453-0.279-0.889-0.494-1.351-0.668-0.458-0.174-0.905-0.29-1.396-0.36-0.497-0.073-1.02-0.108-1.605-0.108-1.296 0-2.431 0.171-3.484 0.538-1.053 0.356-2.063 0.942-3.105 1.801-1.639 1.317-2.803 2.776-3.556 4.466-0.768 1.688-1.134 3.596-1.134 5.829 0 3.359 0.912 6.022 2.842 8.153 1.015 1.148 2.198 2.008 3.625 2.653 1.426 0.646 2.864 0.957 4.424 0.957 1.373 0 2.528-0.223 3.574-0.684 1.049-0.463 2.059-1.195 3.103-2.264l0.53-0.543 1.422 3.457h0.616v-8.002c0-0.255 7e-3 -0.464 0.019-0.607 0.016-0.161 0.063-0.35 0.117-0.475 0.04-0.079 0.09-0.166 0.141-0.244l0.025-0.038 0.017-0.017c0.237-0.234 0.659-0.438 1.123-0.531 0.441-0.079 1.142-0.121 2.059-0.121h0.017v-0.582h-9.746v0.582h0.145c0.719 0 1.304 0.023 1.731 0.067 0.454 0.053 0.875 0.186 1.149 0.358 0.274 0.213 0.524 0.572 0.595 0.929 0.06 0.299 0.091 0.708 0.091 1.179 0 0.753-0.064 1.486-0.186 2.155-0.124 0.671-0.3 1.259-0.507 1.705-0.478 0.903-1.29 1.703-2.314 2.26-1.026 0.539-2.175 0.834-3.333 0.834-1.157 0-2.325-0.293-3.39-0.83-1.06-0.548-1.948-1.306-2.572-2.192-0.647-0.99-1.139-2.181-1.417-3.472-0.275-1.278-0.414-2.858-0.414-4.687 0-3.859 0.644-6.873 1.88-8.91 1.298-2.048 3.308-3.176 5.816-3.176 2.012 0 3.811 0.786 5.216 2.22 1.368 1.439 2.327 3.398 3.013 5.978h0.573l-0.405-8.456zm13.267 7.358c1.048 0 2.091 0.255 3.017 0.716 0.913 0.467 1.756 1.119 2.443 1.908 0.687 0.788 1.245 1.75 1.64 2.8 0.389 1.056 0.596 2.229 0.596 3.434 0 1.204-0.207 2.383-0.596 3.449-0.394 1.06-0.953 2.028-1.64 2.816-0.688 0.79-1.545 1.444-2.479 1.911-0.948 0.462-2.01 0.715-3.078 0.715s-2.126-0.254-3.063-0.716c-0.923-0.466-1.776-1.118-2.474-1.906-0.699-0.789-1.264-1.752-1.66-2.803-0.389-1.056-0.596-2.229-0.596-3.434 0-1.226 0.213-2.417 0.614-3.484 0.405-1.06 0.972-2.024 1.656-2.815 0.693-0.786 1.553-1.44 2.501-1.896 0.956-0.45 2.032-0.695 3.119-0.695zm-2.689 1.597c-0.86 0.404-1.558 0.934-2.177 1.652-0.63 0.715-1.107 1.527-1.475 2.511-0.376 0.976-0.549 1.99-0.549 3.13 0 1.119 0.169 2.118 0.533 3.084 0.357 0.971 0.836 1.772 1.471 2.489 0.636 0.718 1.332 1.26 2.174 1.676 0.826 0.422 1.661 0.61 2.615 0.61s1.796-0.189 2.634-0.611c0.851-0.415 1.545-0.955 2.169-1.671 0.625-0.718 1.098-1.524 1.456-2.506 0.365-0.978 0.534-1.983 0.534-3.103 0-1.119-0.169-2.118-0.534-3.085-0.357-0.972-0.831-1.775-1.456-2.493-0.625-0.717-1.31-1.257-2.141-1.672-0.816-0.421-1.633-0.608-2.565-0.608-0.979 0-1.839 0.185-2.689 0.597zm5.857 1.879c0.66 1.266 1.01 3.099 1.01 5.382 0 2.305-0.357 4.141-1.029 5.387-0.732 1.264-1.887 2.019-3.246 2.019s-2.51-0.757-3.231-2.022c-0.661-1.246-1.012-3.069-1.012-5.352 0-2.347 0.351-4.203 1.012-5.45 0.724-1.267 1.907-2.02 3.328-2.02 1.32 0 2.45 0.771 3.168 2.056zm-3.168-1.056c-1.161 0-1.904 0.419-2.448 1.496-0.609 1.099-0.892 2.717-0.892 4.974 0 2.191 0.283 3.777 0.892 4.876 0.547 1.08 1.258 1.498 2.351 1.498s1.81-0.419 2.37-1.501c0.618-1.098 0.905-2.692 0.905-4.905 0-2.193-0.284-3.79-0.893-4.912-0.551-1.102-1.239-1.526-2.285-1.526zm15.593-1.934v1.783c0.532-0.595 0.753-0.868 1.663-1.424 0.925-0.543 2.022-0.845 3.161-0.845 1.073 0 2.111 0.264 2.976 0.76 0.867 0.498 1.576 1.243 2.047 2.117 0.156 0.289 0.29 0.571 0.393 0.822 0.107 0.268 0.194 0.599 0.243 0.927 0.044 0.314 0.078 0.69 0.1 1.107 0.023 0.418 0.033 0.936 0.033 1.543v6.648c-2e-3 0.316 0.019 0.516 0.074 0.673 0.027 0.131 0.05 0.162 0.162 0.223 0.101 0.085 0.236 0.112 0.522 0.139 0.318 0.031 0.73 0.046 1.259 0.046h0.662v2.227h-9.551v-2.227h0.628c0.551 0 0.973-0.015 1.292-0.046 0.288-0.023 0.434-0.059 0.55-0.146 0.12-0.061 0.141-0.089 0.167-0.217 0.054-0.159 0.074-0.356 0.072-0.672v-6.808c1e-3 -0.794-0.056-1.413-0.179-1.917-0.116-0.498-0.263-0.853-0.495-1.172-0.216-0.3-0.482-0.508-0.877-0.71-0.393-0.201-0.711-0.284-1.078-0.284-0.674 0-1.24 0.188-1.86 0.62-0.624 0.436-1.064 0.949-1.394 1.663-0.16 0.376-0.286 0.866-0.4 1.543s-0.171 1.405-0.17 2.225v4.84c-2e-3 0.316 0.019 0.514 0.072 0.672 0.026 0.128 0.047 0.156 0.167 0.216 0.117 0.088 0.263 0.124 0.551 0.147 0.319 0.031 0.741 0.046 1.292 0.046h0.628v2.227h-9.551v-2.227h0.629c0.529 0 0.947-0.015 1.277-0.046 0.297-0.028 0.437-0.055 0.537-0.139 0.112-0.06 0.134-0.093 0.162-0.225 0.054-0.157 0.075-0.355 0.073-0.671v-9.422c0-0.353-0.013-0.611-0.043-0.816-0.018-0.168-0.024-0.209-0.084-0.252-0.043-0.068-0.063-0.064-0.181-0.091-0.148-0.035-0.342-0.052-0.644-0.051h-1.726v-2.392l6.841-0.414zm-5.841 1.806h0.726c0.344 1e-3 0.654 0.026 0.872 0.077 0.248 0.059 0.52 0.223 0.693 0.393 0.154 0.193 0.286 0.498 0.334 0.779 0.034 0.248 0.053 0.582 0.053 0.961v9.422c-2e-3 0.374-0.045 0.722-0.12 0.973-0.101 0.276-0.315 0.569-0.547 0.746-0.243 0.152-0.622 0.276-1.013 0.312-0.358 0.033-0.822 0.05-1.369 0.05h0.371v0.227h7.551v-0.227h0.372c-0.569 0-1.039-0.017-1.388-0.05-0.378-0.041-0.749-0.155-0.998-0.303-0.246-0.177-0.472-0.474-0.576-0.753-0.074-0.25-0.118-0.601-0.12-0.975v-4.84c1e-3 -0.858 0.062-1.67 0.184-2.391s0.285-1.331 0.468-1.773c0.399-0.828 1.008-1.577 1.74-2.087 0.736-0.514 1.6-0.8 2.432-0.8 0.493 0 1.045 0.143 1.534 0.394 0.487 0.25 0.921 0.612 1.221 1 0.284 0.411 0.525 0.96 0.667 1.538 0.135 0.574 0.206 1.31 0.207 2.151v6.808c-2e-3 0.374-0.045 0.723-0.119 0.973-0.104 0.279-0.33 0.577-0.575 0.754-0.249 0.149-0.621 0.263-0.999 0.304-0.349 0.033-0.819 0.05-1.388 0.05h0.372v0.227h7.551v-0.227h0.338c-0.547 0-1.007-0.017-1.355-0.05-0.38-0.037-0.751-0.159-0.993-0.311-0.231-0.176-0.448-0.47-0.549-0.747-0.075-0.251-0.118-0.599-0.12-0.973v-6.648c0-0.597-0.01-1.089-0.031-1.489-0.022-0.399-0.052-0.733-0.092-1.023-0.039-0.274-0.092-0.481-0.179-0.687-0.089-0.222-0.203-0.457-0.347-0.726-0.389-0.76-0.918-1.295-1.665-1.723-0.749-0.43-1.529-0.628-2.478-0.628-1.011 0-1.85 0.214-2.647 0.703-0.812 0.478-1.539 1.221-2.262 2.303l-0.915 1.368v-3.826l-4.841 0.294v0.45zm29.244 11.455c1.194 0 2.132 0.04 2.785 0.116 0.662 0.08 1.264 0.223 1.73 0.406 0.695 0.302 1.32 0.842 1.725 1.532 0.402 0.685 0.618 1.547 0.618 2.447 0 1.912-0.831 3.499-2.345 4.464-1.483 0.945-3.74 1.426-6.61 1.426-2.324 0-4.198-0.336-5.514-0.972-1.34-0.692-2.15-1.781-2.15-3.046 0-0.795 0.335-1.599 0.913-2.202 0.563-0.586 0.871-0.735 1.475-1.044-0.845-0.304-0.489-0.253-0.906-0.748-0.4-0.527-0.643-1.281-0.643-2.105 0-1.028 0.335-1.941 0.894-2.57 0.579-0.591 0.936-0.734 1.614-0.999-0.52-0.389-0.769-0.536-1.304-1.395-0.532-0.857-0.817-1.897-0.817-2.974 0-0.889 0.183-1.756 0.513-2.499 0.34-0.736 0.854-1.41 1.475-1.935 0.622-0.512 1.402-0.934 2.261-1.22 0.858-0.279 1.85-0.429 2.898-0.429 0.892 0 1.7 0.104 2.354 0.296 0.658 0.201 1.156 0.461 1.762 0.857 0.275-0.253 0.45-0.41 0.748-0.653 0.307-0.251 0.619-0.462 0.891-0.606 0.274-0.14 0.568-0.252 0.827-0.316 0.255-0.059 0.554-0.094 0.84-0.094 0.75 0 1.46 0.266 1.964 0.692 0.48 0.461 0.795 1.115 0.795 1.777 0 0.561-0.231 1.122-0.576 1.509-0.374 0.357-0.913 0.604-1.44 0.604-0.501 0-1.002-0.163-1.353-0.409-0.322-0.272-0.579-0.733-0.681-1.2-8e-3 5e-3 -0.016 0.011-0.026 0.018-0.136 0.079-0.177 0.126-0.302 0.246 0.368 0.473 0.603 0.836 0.799 1.372 0.185 0.531 0.288 1.189 0.288 1.893 0 1.184-0.317 2.303-0.883 3.22-0.59 0.909-1.48 1.652-2.572 2.14-0.252 0.114-0.503 0.209-0.718 0.269-0.206 0.057-0.444 0.11-0.691 0.155-0.248 0.045-0.546 0.085-0.878 0.119-0.332 0.033-0.745 0.06-1.223 0.083l-1.52 0.065c-1.106 0.038-1.818 0.153-2.235 0.368-0.385 0.15-0.446 0.291-0.446 0.648 0 0.12 0.014 0.205 0.077 0.342 0.044 0.128 0.034 0.133 0.071 0.134 0.091 0.055 0.147 0.084 0.21 0.106 0.05 0.022 0.111 0.034 0.244 0.053 0.135 0.019 0.321 0.033 0.58 0.043 0.263 0.011 0.613 0.016 1.062 0.016h3.42zm-3.42 1c-0.455 0-0.827-5e-3 -1.102-0.016-0.277-0.012-0.511-0.03-0.678-0.053-0.167-0.025-0.342-0.065-0.464-0.109-0.11-0.044-0.246-0.111-0.369-0.184-0.177-0.129-0.373-0.372-0.479-0.609-0.09-0.226-0.152-0.499-0.152-0.723 0-0.633 0.425-1.224 1.008-1.546 0.551-0.259 1.462-0.424 2.634-0.47l1.516-0.064c0.468-0.022 0.851-0.047 1.165-0.079 0.314-0.031 0.575-0.067 0.801-0.108 0.227-0.041 0.42-0.084 0.601-0.135 0.171-0.046 0.35-0.113 0.572-0.215 0.972-0.414 1.654-0.973 2.141-1.764 0.507-0.783 0.728-1.634 0.728-2.686 0-0.63-0.069-1.121-0.23-1.558-0.146-0.433-0.431-0.875-0.902-1.403l-0.303-0.339 0.311-0.333c0.316-0.338 0.602-0.593 0.81-0.727 0.221-0.131 0.504-0.238 0.717-0.238 0.175 0 0.438 0.101 0.564 0.226 0.138 0.138 0.222 0.412 0.253 0.65 0.038 0.326 0.108 0.473 0.308 0.597 0.188 0.164 0.386 0.205 0.747 0.205 0.333 0 0.513-0.055 0.721-0.299 0.236-0.215 0.295-0.429 0.295-0.814 0-0.458-0.105-0.74-0.463-1.033-0.334-0.326-0.71-0.436-1.296-0.436-0.23 0-0.414 0.019-0.608 0.067-0.194 0.043-0.375 0.113-0.597 0.23-0.222 0.114-0.448 0.27-0.721 0.493-0.282 0.231-0.607 0.52-0.988 0.88l-0.302 0.285-0.334-0.242c-0.657-0.476-1.234-0.778-1.804-0.943-0.572-0.174-1.238-0.254-2.068-0.254-0.974 0-1.81 0.12-2.586 0.379-0.777 0.252-1.394 0.582-1.933 1.038-0.543 0.443-0.921 0.941-1.205 1.581-0.294 0.635-0.423 1.296-0.423 2.085 0 0.945 0.209 1.711 0.667 2.446 0.455 0.733 1.035 1.246 1.879 1.616l1.399 0.615-1.495 0.329c-1.086 0.239-1.782 0.564-2.215 1.047-0.45 0.448-0.622 1.019-0.622 1.885 0 0.682 0.111 1.122 0.421 1.477 0.294 0.386 0.758 0.667 1.503 0.923l1.267 0.436c0.088-0.05 0.178-0.099 0.271-0.148l0.109-0.058h4.867c0.306 0 0.564 5e-3 0.757 0.017 0.191 0.011 0.369 0.027 0.549 0.049 0.754 0.08 1.447 0.333 1.91 0.734 0.478 0.413 0.77 1.06 0.77 1.701 0 1.111-0.709 2.087-1.854 2.705-1.123 0.56-2.71 0.86-4.648 0.86-1.466 0-2.679-0.237-3.524-0.671-0.869-0.494-1.43-1.318-1.43-2.248 0-0.623 0.24-1.252 0.618-1.726 0.3-0.349 0.77-0.719 1.372-1.08l-1.029 0.371c-0.991 0.357-1.664 0.759-2.133 1.248-0.454 0.473-0.635 0.906-0.635 1.509 0 0.973 0.436 1.614 1.591 2.148 1.181 0.592 2.835 0.87 5.073 0.87 2.767 0 4.737-0.418 6.073-1.269 1.304-0.832 1.882-1.94 1.882-3.621 0-0.778-0.15-1.378-0.48-1.941-0.327-0.558-0.692-0.9-1.245-1.114-0.393-0.159-0.858-0.266-1.466-0.336-0.615-0.074-1.493-0.11-2.667-0.11h-3.42zm4.861-12.056c0.615 0.807 0.963 1.968 0.963 3.327 0 1.404-0.367 2.6-1.015 3.43-0.697 0.814-1.741 1.298-2.938 1.298-1.155 0-2.179-0.477-2.884-1.277-0.661-0.819-1.036-1.991-1.036-3.354 0-1.403 0.368-2.595 1.018-3.416 0.699-0.803 1.774-1.279 3.032-1.279 1.175 0 2.194 0.476 2.86 1.271zm-2.86-0.271c-1.066 0-1.755 0.256-2.26 0.915-0.556 0.643-0.79 1.517-0.79 2.78 0 1.219 0.237 2.069 0.802 2.712 0.523 0.663 1.165 0.919 2.118 0.919 0.997 0 1.653-0.258 2.162-0.928 0.556-0.655 0.791-1.536 0.791-2.8 0-1.223-0.222-2.074-0.747-2.707-0.474-0.647-1.101-0.891-2.076-0.891zm-2.684 15.231c-0.725 0.387-1.179 0.707-1.467 1.063-0.29 0.321-0.384 0.629-0.384 1.084 0 0.66 0.215 1.04 0.896 1.364 0.703 0.384 1.684 0.555 3.058 0.555 1.848 0 3.208-0.238 4.194-0.751 0.963-0.459 1.308-0.989 1.308-1.814 0-0.435-0.106-0.669-0.424-0.945-0.333-0.287-0.726-0.444-1.35-0.494-0.164-0.02-0.34-0.036-0.515-0.047-0.173-0.01-0.401-0.015-0.697-0.015h-4.619zm29.198-16.199-0.099-0.371c-0.232-0.867-0.491-1.645-0.787-2.359-0.286-0.705-0.66-1.37-1.14-2.035-1.288-1.9-2.976-2.754-5.27-2.754-1.343 0-2.333 0.3-3.131 0.995-0.816 0.656-1.145 1.428-1.145 2.506 0 0.937 0.259 1.612 0.912 2.205 0.643 0.633 1.653 1.103 3.134 1.475l3.615 0.935c1.346 0.348 2.418 0.687 3.182 1.008 0.779 0.33 1.464 0.764 1.977 1.246 1.414 1.4 2.186 3.29 2.186 5.491 0 1.186-0.218 2.311-0.62 3.276-0.413 0.961-1.02 1.833-1.771 2.515-0.748 0.68-1.691 1.226-2.734 1.601-1.045 0.367-2.241 0.563-3.508 0.563-0.769 0-1.487-0.047-2.119-0.135-0.636-0.091-1.278-0.248-1.873-0.46-0.594-0.215-1.189-0.501-1.738-0.835-0.542-0.333-0.842-0.551-1.284-0.891l-1.365 2.062h-2.155v-10.617h2.298l0.079 0.404c0.252 1.288 0.562 2.324 0.948 3.164 0.38 0.837 0.891 1.606 1.578 2.373 0.783 0.849 1.565 1.435 2.432 1.815 0.858 0.391 1.848 0.57 3.071 0.57 0.914 0 1.615-0.087 2.182-0.281 0.564-0.182 1.057-0.476 1.579-0.943 0.951-0.843 1.354-1.788 1.354-3.02 0-1.245-0.401-2.119-1.382-2.827-0.169-0.127-0.317-0.234-0.452-0.327-0.104-0.076-0.222-0.13-0.421-0.195-0.216-0.072-0.502-0.153-0.873-0.248-0.378-0.099-0.878-0.233-1.502-0.405l-3.191-0.806c-1.266-0.327-2.363-0.702-3.248-1.111-0.895-0.414-1.663-0.928-2.237-1.485-0.573-0.571-1.027-1.279-1.299-2.028-0.26-0.746-0.401-1.641-0.401-2.604 0-1.101 0.201-2.157 0.569-3.077 0.379-0.916 0.94-1.745 1.621-2.4 0.687-0.646 1.553-1.173 2.512-1.528 0.959-0.345 2.05-0.53 3.188-0.53 1.247 0 2.463 0.213 3.56 0.613 1.102 0.41 1.763 0.833 2.504 1.451l1.185-1.806h1.975l0.43 9.81h-2.326zm0.938-8.81h-0.477l-1.542 2.35-0.433-0.426c-0.754-0.742-1.59-1.267-2.598-1.631-1.01-0.376-2.053-0.551-3.216-0.551-1.056 0-1.976 0.149-2.846 0.47-0.871 0.313-1.563 0.732-2.166 1.312-0.611 0.573-1.052 1.228-1.383 2.053-0.34 0.823-0.495 1.69-0.495 2.7 0 0.887 0.107 1.616 0.343 2.27 0.222 0.647 0.554 1.164 1.057 1.648 0.5 0.497 1.13 0.909 1.957 1.291 0.837 0.387 1.848 0.734 3.077 1.051l3.192 0.806c0.623 0.172 1.129 0.307 1.503 0.405 0.383 0.098 0.7 0.188 0.936 0.266 0.253 0.087 0.501 0.205 0.677 0.323 0.143 0.099 0.307 0.218 0.482 0.349 1.129 0.886 1.782 2.162 1.782 3.627 0 1.436-0.609 2.751-1.679 3.758-0.597 0.521-1.276 0.927-1.938 1.153-0.661 0.216-1.52 0.333-2.498 0.333-1.315 0-2.509-0.231-3.479-0.657-0.962-0.436-1.909-1.14-2.761-2.052-0.731-0.824-1.333-1.728-1.751-2.633-0.41-0.904-0.684-1.82-0.936-2.984h-0.479v8.617h0.617l1.674-2.529 0.428 0.35c0.569 0.464 1.096 0.843 1.607 1.156 0.507 0.31 1.008 0.551 1.553 0.745 0.545 0.198 1.088 0.331 1.676 0.412 0.594 0.084 1.242 0.125 1.979 0.125 1.188 0 2.217-0.16 3.173-0.505 0.958-0.335 1.725-0.789 2.397-1.399 0.669-0.608 1.16-1.296 1.522-2.165 0.371-0.863 0.541-1.792 0.541-2.886 0-2.017-0.583-3.546-1.881-4.772-0.433-0.419-0.963-0.751-1.668-1.043-0.722-0.305-1.726-0.622-3.046-0.962l-3.615-0.935c-1.573-0.404-2.801-0.997-3.575-1.72-0.769-0.763-1.221-1.799-1.221-2.928 0-1.286 0.553-2.44 1.501-3.27 0.966-0.789 2.278-1.231 3.775-1.231 2.526 0 4.624 1.126 6.09 3.182 0.51 0.713 0.932 1.468 1.246 2.227 0.308 0.748 0.508 1.353 0.724 2.11h0.518l-0.344-7.81zm10.598-1.319v10.978c0.542-0.611 0.779-0.899 1.678-1.454 0.915-0.544 2.007-0.847 3.147-0.847 1.093 0 2.139 0.264 2.994 0.762 0.856 0.498 1.558 1.242 2.029 2.115 0.156 0.29 0.29 0.572 0.393 0.822 0.109 0.268 0.193 0.597 0.242 0.926 0.044 0.314 0.079 0.692 0.101 1.109s0.033 0.935 0.033 1.542v6.648c-2e-3 0.316 0.019 0.516 0.074 0.673 0.027 0.131 0.05 0.162 0.162 0.223 0.101 0.085 0.236 0.116 0.523 0.139 0.317 0.031 0.729 0.046 1.258 0.046h0.662v2.227h-9.552v-2.227h0.629c0.55 0 0.973-0.015 1.292-0.046 0.287-0.023 0.432-0.059 0.549-0.146 0.121-0.062 0.143-0.091 0.167-0.218 0.054-0.157 0.075-0.355 0.073-0.671v-6.776c1e-3 -0.795-0.056-1.42-0.18-1.934-0.117-0.51-0.262-0.869-0.494-1.187-0.216-0.3-0.482-0.508-0.876-0.71-0.393-0.201-0.712-0.284-1.08-0.284-0.674 0-1.246 0.179-1.859 0.62-0.629 0.428-1.064 0.949-1.394 1.663-0.159 0.375-0.287 0.866-0.401 1.544-0.115 0.676-0.171 1.404-0.17 2.224v4.84c-2e-3 0.315 0.02 0.513 0.073 0.672 0.026 0.127 0.048 0.155 0.168 0.217 0.116 0.087 0.262 0.119 0.55 0.146 0.319 0.031 0.741 0.046 1.291 0.046h0.629v2.227h-9.551v-2.227h0.628c0.53 0 0.948-0.015 1.277-0.046 0.298-0.023 0.437-0.055 0.538-0.138 0.112-0.061 0.133-0.093 0.161-0.225 0.055-0.159 0.076-0.357 0.074-0.672v-18.555c4e-3 -0.686-0.024-0.994-0.141-1.082-0.043-0.123-0.249-0.136-0.811-0.128h-2.113v-2.424l7.227-0.412zm-6.227 1.836h1.113c0.686 8e-3 1.275 0.199 1.577 0.485 0.226 0.32 0.371 0.949 0.375 1.725v18.555c-2e-3 0.375-0.046 0.724-0.12 0.973-0.101 0.275-0.315 0.568-0.545 0.745-0.244 0.152-0.624 0.272-1.016 0.313-0.357 0.033-0.821 0.05-1.369 0.05h0.372v0.227h7.551v-0.227h0.371c-0.568 0-1.038-0.017-1.387-0.05-0.38-0.037-0.75-0.155-0.998-0.303-0.245-0.177-0.472-0.473-0.576-0.753-0.074-0.249-0.119-0.6-0.121-0.975v-4.84c1e-3 -0.858 0.063-1.67 0.184-2.391 0.124-0.721 0.286-1.331 0.469-1.773 0.399-0.828 1.013-1.569 1.74-2.087 0.741-0.505 1.599-0.8 2.431-0.8 0.494 0 1.046 0.143 1.536 0.394 0.488 0.25 0.92 0.612 1.22 1 0.284 0.412 0.525 0.968 0.668 1.557 0.134 0.582 0.205 1.323 0.206 2.164v6.776c-2e-3 0.374-0.045 0.722-0.12 0.973-0.104 0.281-0.33 0.577-0.573 0.754-0.249 0.147-0.621 0.263-1 0.304-0.349 0.033-0.82 0.05-1.388 0.05h0.371v0.227h7.552v-0.227h0.338c-0.547 0-1.007-0.017-1.354-0.05-0.381-0.041-0.751-0.159-0.994-0.311-0.231-0.176-0.448-0.47-0.549-0.747-0.075-0.251-0.118-0.599-0.12-0.973v-6.648c0-0.597-0.011-1.088-0.031-1.49-0.022-0.398-0.051-0.731-0.093-1.021-0.037-0.273-0.093-0.481-0.178-0.688-0.091-0.224-0.203-0.458-0.347-0.726-0.391-0.761-0.915-1.297-1.651-1.725-0.737-0.428-1.521-0.626-2.492-0.626-1.01 0-1.844 0.213-2.629 0.701-0.801 0.479-1.537 1.234-2.282 2.34l-0.914 1.354v-13.014l-5.227 0.298v0.48zm28.114 6.841c1.048 0 2.092 0.255 3.018 0.716 0.911 0.467 1.754 1.119 2.441 1.908 0.686 0.788 1.246 1.75 1.642 2.8 0.388 1.056 0.595 2.229 0.595 3.434 0 1.204-0.207 2.383-0.595 3.449-0.395 1.06-0.955 2.028-1.642 2.816-0.688 0.79-1.543 1.444-2.477 1.911-0.948 0.462-2.01 0.715-3.078 0.715s-2.127-0.254-3.064-0.716c-0.923-0.466-1.773-1.121-2.473-1.906-0.696-0.792-1.265-1.753-1.66-2.804-0.389-1.055-0.597-2.228-0.597-3.433 0-1.226 0.21-2.418 0.613-3.484 0.402-1.062 0.973-2.024 1.656-2.815 0.693-0.786 1.554-1.44 2.502-1.896 0.956-0.45 2.032-0.695 3.119-0.695zm-2.689 1.597c-0.86 0.404-1.559 0.934-2.178 1.652-0.629 0.715-1.102 1.528-1.474 2.511-0.371 0.978-0.549 1.99-0.549 3.13 0 1.119 0.17 2.118 0.534 3.084 0.357 0.971 0.831 1.775 1.471 2.489 0.631 0.721 1.331 1.26 2.173 1.676 0.826 0.422 1.662 0.61 2.616 0.61s1.796-0.189 2.634-0.611c0.85-0.415 1.543-0.955 2.167-1.671 0.625-0.718 1.099-1.524 1.458-2.506 0.364-0.978 0.533-1.983 0.533-3.103 0-1.119-0.169-2.118-0.533-3.086-0.358-0.972-0.832-1.774-1.458-2.492-0.625-0.717-1.31-1.257-2.139-1.672-0.816-0.421-1.634-0.608-2.566-0.608-0.979 0-1.839 0.185-2.689 0.597zm5.857 1.879c0.671 1.261 1.011 3.099 1.011 5.382 0 2.305-0.358 4.141-1.03 5.387-0.732 1.264-1.887 2.019-3.245 2.019-1.36 0-2.51-0.757-3.231-2.022-0.661-1.245-1.013-3.069-1.013-5.352 0-2.347 0.352-4.203 1.013-5.45 0.724-1.266 1.906-2.02 3.327-2.02 1.321 0 2.477 0.756 3.168 2.056zm-3.168-1.056c-1.161 0-1.903 0.418-2.447 1.496-0.609 1.099-0.893 2.717-0.893 4.974 0 2.191 0.284 3.777 0.893 4.876 0.547 1.08 1.257 1.498 2.351 1.498 1.092 0 1.809-0.419 2.369-1.501 0.618-1.098 0.906-2.692 0.906-4.905 0-2.193-0.294-3.785-0.893-4.912-0.579-1.088-1.239-1.526-2.286-1.526z" style=""/>
<path class="ccustom" d="m19.148 38.492c10.253 0 18.564-8.31 18.564-18.562 0-10.253-8.311-18.564-18.564-18.564-10.251 0-18.562 8.311-18.562 18.564 0 10.252 8.311 18.562 18.562 18.562zm2.866-22.783c1.582-1.583 1.582-4.148 0-5.73-1.582-1.584-4.148-1.584-5.73 0-1.582 1.582-1.582 4.147 0 5.73l2.864 2.864 2.866-2.864zm1.356 7.085c1.582 1.583 4.148 1.583 5.73 0 1.583-1.582 1.583-4.148 0-5.73-1.582-1.582-4.148-1.582-5.73 0l-2.865 2.866 2.865 2.864zm-1.356 7.086c1.582-1.583 1.582-4.147 0-5.731l-2.866-2.863-2.864 2.863c-1.582 1.584-1.582 4.148 0 5.731s4.148 1.583 5.73 0zm-12.816-7.086c-1.583-1.582-1.583-4.148 0-5.73s4.147-1.582 5.731 0l2.864 2.866-2.864 2.864c-1.584 1.583-4.148 1.583-5.731 0z" clip-rule="evenodd" fill-rule="evenodd" style=""/>
</svg>
